<svg xmlns="http://www.w3.org/2000/svg" xmlns:xlink="http://www.w3.org/1999/xlink" xmlns:lucid="lucid" width="1001.23" height="557.54"><g transform="translate(-99.5 -159.5)" lucid:page-tab-id="0_0"><path d="M100 403.54a6 6 0 0 1 6-6h188a6 6 0 0 1 6 6v152a6 6 0 0 1-6 6H106a6 6 0 0 1-6-6z" fill="#1d2e40"/><path d="M100 403.54a6 6 0 0 1 6-6h188a6 6 0 0 1 6 6v152a6 6 0 0 1-6 6H106a6 6 0 0 1-6-6zM100 437.54h200M233.33 437.54v124" stroke="#565c61" fill="none"/><use xlink:href="#a" transform="matrix(1,0,0,1,110,397.53679376349555) translate(70.27160493827161 23.555555555555557)"/><use xlink:href="#b" transform="matrix(1,0,0,1,105,440.03679376349555) translate(0 16.555555555555557)"/><use xlink:href="#c" transform="matrix(1,0,0,1,238.33333333333337,440.03679376349555) translate(0 16.555555555555557)"/><use xlink:href="#d" transform="matrix(1,0,0,1,105,471.03679376349555) translate(0 16.555555555555557)"/><use xlink:href="#c" transform="matrix(1,0,0,1,238.33333333333337,471.03679376349555) translate(0 16.555555555555557)"/><use xlink:href="#e" transform="matrix(1,0,0,1,105,502.03679376349555) translate(0 16.555555555555557)"/><use xlink:href="#c" transform="matrix(1,0,0,1,238.33333333333337,502.03679376349555) translate(0 16.555555555555557)"/><use xlink:href="#f" transform="matrix(1,0,0,1,105,533.0367937634956) translate(0 16.555555555555557)"/><use xlink:href="#g" transform="matrix(1,0,0,1,238.33333333333337,533.0367937634956) translate(0 16.555555555555557)"/><path d="M363.16 418H320.5v-.94h42.66zm94.96 0h-22.66v-.94h22.66z" stroke="#565c61" stroke-width=".05" fill="#565c61"/><path d="M310.98 417.06h9.04v-9.52h.96v20h-.96V418h-9.04v9.54h-.96V418h-9.52v-.94h9.52v-9.52h.96z" stroke="#565c61" stroke-width=".05" fill="#565c61"/><path d="M471.06 408.05l2.74 1.42 2.17 2.16 1.42 2.75.5 3.16-.5 3.16-1.43 2.74-2.17 2.17-2.74 1.43-3.16.5-3.16-.5-2.75-1.42-2.17-2.16-1.42-2.74-.5-3.16.5-3.16 1.43-2.75 2.16-2.16 2.74-1.42 3.16-.5zm26.84 19.5l-20-10m20-10l-20 10m0 0h20" fill="#fff"/><path d="M471.2 407.6l2.9 1.48 2.25 2.27 1.5 2.88.4 2.6 19.43-9.72.43.86-18.2 9.1h18v.95h-18l18.2 9.1-.42.86-19.42-9.7-.42 2.6-1.48 2.87-2.27 2.26-2.9 1.48-3.3.54-3.3-.54-2.9-1.5-2.26-2.25-1.5-2.88-.52-3.3.53-3.32 1.5-2.88 2.26-2.27 2.88-1.5 3.32-.52zm-6.3.9l-2.63 1.35-2.06 2.06-1.34 2.63-.48 3 .48 3.02 1.35 2.6 2.07 2.07 2.62 1.35 3 .5 3-.5 2.62-1.35 2.06-2.06 1.35-2.6.5-3.02-.5-3-1.35-2.63-2.06-2.05-2.6-1.35-3.02-.48z" stroke="#565c61" stroke-width=".05" fill="#565c61"/><use xlink:href="#h" transform="matrix(1,0,0,1,363.1621830605951,406.8701262553952) translate(0 14.222222222222223)"/><path d="M900.23 403.54a6 6 0 0 1 6-6h188a6 6 0 0 1 6 6v307a6 6 0 0 1-6 6h-188a6 6 0 0 1-6-6z" fill="#1d2e40"/><path d="M900.23 403.54a6 6 0 0 1 6-6h188a6 6 0 0 1 6 6v307a6 6 0 0 1-6 6h-188a6 6 0 0 1-6-6zM900.23 437.54h200M1033.6 437.54v279" stroke="#565c61" fill="none"/><use xlink:href="#i" transform="matrix(1,0,0,1,910.2322212273713,397.536793766279) translate(62.345679012345684 23.555555555555557)"/><use xlink:href="#j" transform="matrix(1,0,0,1,905.2322212273713,440.036793766279) translate(0 16.555555555555557)"/><use xlink:href="#k" transform="matrix(1,0,0,1,1038.6002637454164,440.036793766279) translate(0 16.555555555555557)"/><use xlink:href="#l" transform="matrix(1,0,0,1,905.2322212273713,471.036793766279) translate(0 16.555555555555557)"/><use xlink:href="#c" transform="matrix(1,0,0,1,1038.6002637454164,471.036793766279) translate(0 16.555555555555557)"/><use xlink:href="#m" transform="matrix(1,0,0,1,905.2322212273713,502.036793766279) translate(0 16.555555555555557)"/><use xlink:href="#c" transform="matrix(1,0,0,1,1038.6002637454164,502.036793766279) translate(0 16.555555555555557)"/><use xlink:href="#n" transform="matrix(1,0,0,1,905.2322212273713,533.0367937662791) translate(0 16.555555555555557)"/><use xlink:href="#o" transform="matrix(1,0,0,1,1038.6002637454164,533.0367937662791) translate(0 16.555555555555557)"/><use xlink:href="#p" transform="matrix(1,0,0,1,905.2322212273713,564.0367937662791) translate(0 16.555555555555557)"/><use xlink:href="#o" transform="matrix(1,0,0,1,1038.6002637454164,564.0367937662791) translate(0 16.555555555555557)"/><use xlink:href="#q" transform="matrix(1,0,0,1,905.2322212273713,595.0367937662791) translate(0 16.555555555555557)"/><use xlink:href="#k" transform="matrix(1,0,0,1,1038.6002637454164,595.0367937662791) translate(0 16.555555555555557)"/><use xlink:href="#r" transform="matrix(1,0,0,1,905.2322212273713,626.0367937662791) translate(0 16.555555555555557)"/><use xlink:href="#g" transform="matrix(1,0,0,1,1038.6002637454164,626.0367937662791) translate(0 16.555555555555557)"/><use xlink:href="#s" transform="matrix(1,0,0,1,905.2322212273713,657.0367937662791) translate(0 16.555555555555557)"/><use xlink:href="#g" transform="matrix(1,0,0,1,1038.6002637454164,657.0367937662791) translate(0 16.555555555555557)"/><use xlink:href="#t" transform="matrix(1,0,0,1,905.2322212273713,688.0367937662791) translate(0 16.555555555555557)"/><use xlink:href="#u" transform="matrix(1,0,0,1,1038.6002637454164,688.0367937662791) translate(0 16.555555555555557)"/><path d="M753.65 453.5h-14.53v-.94h14.53zm126.08 0H845.2v-.94h34.53z" stroke="#565c61" stroke-width=".05" fill="#565c61"/><path d="M880.2 452.56h9.06v-9.52h.95v9.52h9.53v.95h-9.52v9.54h-.94v-9.53h-9.05v9.54h-.94v-20h.95z" stroke="#565c61" stroke-width=".05" fill="#565c61"/><path d="M732.5 443.55l2.75 1.42 2.17 2.16 1.42 2.75.5 3.16-.5 3.16-1.42 2.74-2.17 2.17-2.74 1.43-3.15.5-3.17-.5-2.74-1.42-2.17-2.16-1.4-2.74-.52-3.16.5-3.16 1.42-2.75 2.17-2.16 2.74-1.42 3.17-.5zm-33.15 19.5l20-10m-20-10l20 10m0 0h-20" fill="#fff"/><path d="M732.66 443.1l2.88 1.48 2.26 2.27 1.5 2.88.53 3.3-.54 3.32-1.5 2.88-2.26 2.26-2.88 1.48-3.3.54-3.33-.54-2.87-1.5-2.27-2.25-1.5-2.88-.42-2.6-19.42 9.7-.43-.84 18.2-9.1h-18v-.94h18l-18.2-9.1.43-.85 19.42 9.72.42-2.6 1.5-2.87 2.26-2.27 2.87-1.5 3.32-.52zm-6.32.9l-2.62 1.35-2.06 2.06-1.35 2.63-.47 3 .48 3.02 1.36 2.6 2.06 2.07 2.62 1.35 3 .5 3-.5 2.63-1.35 2.06-2.06 1.35-2.6.48-3.02-.48-3-1.35-2.63-2.06-2.05-2.62-1.35-3-.48z" stroke="#565c61" stroke-width=".05" fill="#565c61"/><use xlink:href="#v" transform="matrix(1,0,0,1,753.6486872235005,442.3701270996123) translate(0 14.222222222222223)"/><use xlink:href="#w" transform="matrix(1,0,0,1,753.6486872235005,442.3701270996123) translate(74.8641975308642 14.222222222222223)"/><path d="M498.62 403.54a6 6 0 0 1 6-6h188a6 6 0 0 1 6 6v90a6 6 0 0 1-6 6h-188a6 6 0 0 1-6-6z" fill="#1d2e40"/><path d="M498.62 403.54a6 6 0 0 1 6-6h188a6 6 0 0 1 6 6v90a6 6 0 0 1-6 6h-188a6 6 0 0 1-6-6zM498.62 437.54h200M638.67 437.54v62" stroke="#565c61" fill="none"/><use xlink:href="#x" transform="matrix(1,0,0,1,508.62073765140644,397.536793766279) translate(63.7283950617284 23.555555555555557)"/><use xlink:href="#y" transform="matrix(1,0,0,1,503.62073765140644,440.036793766279) translate(0 16.555555555555557)"/><use xlink:href="#o" transform="matrix(1,0,0,1,643.6666666666667,440.036793766279) translate(0 16.555555555555557)"/><use xlink:href="#q" transform="matrix(1,0,0,1,503.62073765140644,471.036793766279) translate(0 16.555555555555557)"/><use xlink:href="#k" transform="matrix(1,0,0,1,643.6666666666667,471.036793766279) translate(0 16.555555555555557)"/><path d="M599.1 377.04h-.95V348.4h.95zm0-50h-.95V302h.95z" stroke="#565c61" stroke-width=".05" fill="#565c61"/><path d="M608.62 377.5h-9.52v9.06h9.52v.95h-9.52v9.54h-.95v-9.53h-9.53v-.94h9.53v-9.05h-9.53v-.94h20z" stroke="#565c61" stroke-width=".05" fill="#565c61"/><path d="M601.78 283l2.75 1.43 2.16 2.16 1.4 2.74.52 3.16-.5 3.16-1.43 2.75-2.17 2.17-2.75 1.42-3.16.5-3.16-.5-2.75-1.43-2.15-2.16-1.42-2.74-.5-3.16.5-3.16 1.42-2.75 2.17-2.17 2.74-1.42 3.16-.5zm-3.16-20.5v20m10-10h-20" fill="#fff"/><path d="M599.1 272.02h9.52v.96h-9.52v9.12l2.83.45 2.88 1.5 2.28 2.26 1.5 2.9.52 3.3-.53 3.3-1.5 2.9-2.26 2.26-2.87 1.5-3.3.52-3.32-.53-2.87-1.5-2.27-2.26-1.5-2.9-.52-3.3.53-3.3 1.5-2.9 2.26-2.26 2.88-1.5 2.85-.44v-9.13h-9.53v-.95h9.53v-9.52h.95zm-3.5 11.45l-2.6 1.35-2.06 2.06-1.35 2.6-.5 3.02.5 3 1.34 2.62 2.06 2.06 2.6 1.35 3.02.5 3-.5 2.62-1.35 2.06-2.06 1.35-2.6.5-3.02-.5-3-1.35-2.62-2.06-2.06-2.6-1.35-3.02-.5z" stroke="#565c61" stroke-width=".05" fill="#565c61"/><use xlink:href="#z" transform="matrix(1,0,0,1,568.0281450588138,327.05225218177515) translate(0 14.222222222222223)"/><path d="M498.62 166a6 6 0 0 1 6-6h188a6 6 0 0 1 6 6v90a6 6 0 0 1-6 6h-188a6 6 0 0 1-6-6z" fill="#1d2e40"/><path d="M498.62 166a6 6 0 0 1 6-6h188a6 6 0 0 1 6 6v90a6 6 0 0 1-6 6h-188a6 6 0 0 1-6-6zM498.62 200h200M632 200v62" stroke="#565c61" fill="none"/><use xlink:href="#A" transform="matrix(1,0,0,1,508.62073765140644,160) translate(59.40740740740742 23.555555555555557)"/><use xlink:href="#B" transform="matrix(1,0,0,1,503.62073765140644,202.5) translate(0 16.555555555555557)"/><use xlink:href="#k" transform="matrix(1,0,0,1,637.0000000000001,202.5) translate(0 16.555555555555557)"/><use xlink:href="#C" transform="matrix(1,0,0,1,503.62073765140644,233.5) translate(0 16.555555555555557)"/><use xlink:href="#c" transform="matrix(1,0,0,1,637.0000000000001,233.5) translate(0 16.555555555555557)"/><path d="M360.48 611.55l-.08 1-.24 1-.4.93-.52.86-.66.78-.77.66-.86.53-.94.4-1 .23-.98.08H205.98l-1-.07-.98-.23-.94-.4-.87-.52-.78-.66-.66-.78-.53-.86-.4-.94-.23-1-.07-1v-9.5h.94v9.48l.07.88.2.84.34.8.45.74.56.66.65.56.74.46.8.33.84.2.88.06h147.96l.88-.07.85-.2.8-.34.75-.46.66-.56.57-.66.45-.74.33-.8.2-.84.07-.88v-20.38h.96zm-5.47-96.9l1 .23.94.4.87.52.78.66.66.77.53.87.4.93.23 1 .08 1v48.77h-.96v-48.75l-.06-.88-.2-.84-.34-.8-.45-.74-.56-.67-.65-.56-.74-.46-.8-.32-.84-.2-.88-.07H340.5v-.94h13.52z" stroke="#565c61" stroke-width=".05" fill="#565c61"/><path d="M333.88 505.55l2.75 1.42 2.16 2.16 1.4 2.75.52 3.16-.5 3.16-1.43 2.74-2.17 2.17-2.75 1.43-3.16.5-3.16-.5-2.74-1.42-2.17-2.16-1.42-2.74-.5-3.16.5-3.16 1.42-2.75 2.17-2.16 2.74-1.42 3.16-.5zm-33.16 19.5l20-10m-20-10l20 10m0 0h-20" fill="#fff"/><path d="M334.04 505.1l2.87 1.48 2.28 2.27 1.5 2.88.52 3.3-.53 3.32-1.5 2.88-2.26 2.26-2.86 1.48-3.32.54-3.3-.54-2.9-1.5-2.25-2.25-1.5-2.88-.4-2.6-19.43 9.7-.43-.84 18.2-9.1h-17.98v-.94h18l-18.2-9.1.42-.85 19.42 9.72.42-2.6 1.5-2.87 2.25-2.27 2.88-1.5 3.32-.52zm-6.33.9l-2.6 1.35-2.06 2.06-1.35 2.63-.5 3 .5 3.02 1.34 2.6 2.06 2.07 2.6 1.35 3.02.5 3-.5 2.63-1.35 2.06-2.06 1.36-2.6.48-3.02-.48-3-1.35-2.62-2.05-2.07-2.62-1.35-3-.48z" stroke="#565c61" stroke-width=".05" fill="#565c61"/><path d="M203.16 582.77l2.75 1.42 2.17 2.15 1.42 2.75.5 3.16-.5 3.16-1.43 2.75-2.16 2.16-2.74 1.42-3.16.5-3.16-.5-2.75-1.42-2.17-2.16-1.42-2.75-.5-3.16.5-3.16 1.43-2.75 2.16-2.16 2.74-1.43 3.16-.5zm6.84-20.5l-10 20m-10-20l10 20m0-20v20" fill="#fff"/><path d="M210.43 562.47l-9.72 19.42 2.6.4 2.9 1.5 2.26 2.27 1.5 2.88.52 3.3-.53 3.32-1.5 2.88-2.26 2.27-2.9 1.5-3.3.52-3.3-.53-2.9-1.48-2.26-2.27-1.5-2.88-.52-3.3.53-3.32 1.5-2.88 2.26-2.27 2.9-1.5 2.6-.4-9.73-19.43.86-.42 9.1 18.2v-18h.94v18l9.1-18.2zM197 583.23l-2.62 1.35-2.06 2.06-1.35 2.6-.5 3.02.5 3 1.35 2.62 2.06 2.06 2.6 1.35 3.02.48 3-.5 2.62-1.34 2.06-2.06 1.35-2.6.5-3.02-.5-3-1.35-2.62-2.06-2.06-2.6-1.35-3.02-.5z" stroke="#565c61" stroke-width=".05" fill="#565c61"/><use xlink:href="#D" transform="matrix(1,0,0,1,326.98765432098764,569.8038297366297) translate(0 14.222222222222223)"/><path d="M425 452.64l1 .24.94.4.87.52.78.66.66.77.53.87.4.94.23.98.08 1v112l.06.88.2.84.34.8.45.74.56.66.65.56.74.46.8.33.84.2.88.06h423.7v.95H436l-1-.07-.98-.23-.94-.4-.87-.52-.78-.66-.66-.78-.53-.86-.4-.94-.23-1-.08-1V459.07l-.06-.9-.2-.83-.34-.8-.45-.74-.56-.67-.65-.56-.74-.45-.8-.34-.84-.2-.88-.07h-8.16v-.94h8.2zm-104.5.87v-.94h46.97v.95z" stroke="#565c61" stroke-width=".05" fill="#565c61"/><path d="M872.67 567.55l2.75 1.42 2.16 2.16 1.42 2.75.5 3.16-.5 3.16-1.42 2.74-2.17 2.17-2.73 1.43-3.16.5-3.15-.5-2.75-1.42-2.16-2.16-1.42-2.74-.5-3.16.5-3.16 1.42-2.75 2.16-2.16 2.75-1.42 3.16-.5zm26.84 19.5l-20-10m20-10l-20 10m0 0h20" fill="#fff"/><path d="M872.82 567.1l2.88 1.48 2.27 2.27 1.5 2.88.4 2.6 19.43-9.72.42.86-18.2 9.1h18v.95h-18l18.2 9.1-.42.86-19.42-9.7-.42 2.6-1.5 2.87-2.26 2.26-2.88 1.48-3.3.54-3.32-.54-2.88-1.5-2.27-2.25-1.5-2.88-.52-3.3.53-3.32 1.5-2.88 2.26-2.27 2.88-1.5 3.3-.52zm-6.32.9l-2.6 1.35-2.07 2.06-1.36 2.63-.48 3 .48 3.02 1.35 2.6 2.06 2.07 2.6 1.35 3 .5 3.02-.5 2.6-1.35 2.07-2.06 1.34-2.6.5-3.02-.5-3-1.35-2.63-2.07-2.05-2.6-1.35-3.02-.48zM310.98 452.56h9.04v-9.52h.96v20h-.96v-9.53h-9.04v9.54h-.96v-9.53h-9.52v-.94h9.52v-9.52h.96z" stroke="#565c61" stroke-width=".05" fill="#565c61"/><use xlink:href="#E" transform="matrix(1,0,0,1,367.471526096569,442.37012707384656) translate(0 14.222222222222223)"/><path d="M367.47 453.5H320.5v-.94h46.97zm90.65 0h-42.3v-.94h42.3z" stroke="#565c61" stroke-width=".05" fill="#565c61"/><path d="M320.98 463.04h-.96v-9.53H300.5v-.94h19.52v-9.52h.96z" stroke="#565c61" stroke-width=".05" fill="#565c61"/><path d="M471.06 443.55l2.74 1.42 2.17 2.16 1.42 2.75.5 3.16-.5 3.16-1.43 2.74-2.17 2.17-2.74 1.43-3.16.5-3.16-.5-2.75-1.42-2.17-2.16-1.42-2.74-.5-3.16.5-3.16 1.43-2.75 2.16-2.16 2.74-1.42 3.16-.5zm26.84 19.5l-20-10m20-10l-20 10m0 0h20" fill="#fff"/><path d="M471.2 443.1l2.9 1.48 2.26 2.27 1.48 2.88.42 2.6 19.43-9.72.4.86-18.2 9.1h18v.95h-18l18.2 9.1-.42.86-19.42-9.7-.42 2.6-1.48 2.87-2.27 2.26-2.9 1.48-3.3.54-3.3-.54-2.9-1.5-2.26-2.25-1.5-2.88-.52-3.3.53-3.32 1.5-2.88 2.26-2.27 2.9-1.5 3.3-.52zm-6.3.9l-2.63 1.35-2.06 2.06-1.34 2.63-.48 3 .48 3.02 1.35 2.6 2.07 2.07 2.62 1.35 3 .5 3-.5 2.62-1.35 2.06-2.06 1.35-2.6.5-3.02-.5-3-1.35-2.63-2.06-2.05-2.6-1.35-3.02-.48z" stroke="#565c61" stroke-width=".05" fill="#565c61"/><defs><path fill="#fff" d="M238-95c0 69-44 99-111 99C63 4 22-25 22-93v-155h51v151c-1 38 19 59 55 60 90 1 49-130 58-211h52v153" id="F"/><path fill="#fff" d="M137-138c1-29-70-34-71-4 15 46 118 7 119 86 1 83-164 76-172 9l43-7c4 19 20 25 44 25 33 8 57-30 24-41C81-84 22-81 20-136c-2-80 154-74 161-7" id="G"/><path fill="#fff" d="M185-48c-13 30-37 53-82 52C43 2 14-33 14-96s30-98 90-98c62 0 83 45 84 108H66c0 31 8 55 39 56 18 0 30-7 34-22zm-45-69c5-46-57-63-70-21-2 6-4 13-4 21h74" id="H"/><path fill="#fff" d="M135-150c-39-12-60 13-60 57V0H25l-1-190h47c2 13-1 29 3 40 6-28 27-53 61-41v41" id="I"/><g id="a"><use transform="matrix(0.049382716049382706,0,0,0.049382716049382706,0,0)" xlink:href="#F"/><use transform="matrix(0.049382716049382706,0,0,0.049382716049382706,12.790123456790122,0)" xlink:href="#G"/><use transform="matrix(0.049382716049382706,0,0,0.049382716049382706,22.666666666666664,0)" xlink:href="#H"/><use transform="matrix(0.049382716049382706,0,0,0.049382716049382706,32.5432098765432,0)" xlink:href="#I"/></g><path fill="#fff" d="M232-93c-1 65-40 97-104 97C67 4 28-28 28-90v-158h33c8 89-33 224 67 224 102 0 64-133 71-224h33v155" id="J"/><path fill="#fff" d="M135-143c-3-34-86-38-87 0 15 53 115 12 119 90S17 21 10-45l28-5c4 36 97 45 98 0-10-56-113-15-118-90-4-57 82-63 122-42 12 7 21 19 24 35" id="K"/><path fill="#fff" d="M100-194c63 0 86 42 84 106H49c0 40 14 67 53 68 26 1 43-12 49-29l28 8c-11 28-37 45-77 45C44 4 14-33 15-96c1-61 26-98 85-98zm52 81c6-60-76-77-97-28-3 7-6 17-6 28h103" id="L"/><path fill="#fff" d="M114-163C36-179 61-72 57 0H25l-1-190h30c1 12-1 29 2 39 6-27 23-49 58-41v29" id="M"/><path fill="#fff" d="M117-194c89-4 53 116 60 194h-32v-121c0-31-8-49-39-48C34-167 62-67 57 0H25l-1-190h30c1 10-1 24 2 32 11-22 29-35 61-36" id="N"/><path fill="#fff" d="M141-36C126-15 110 5 73 4 37 3 15-17 15-53c-1-64 63-63 125-63 3-35-9-54-41-54-24 1-41 7-42 31l-33-3c5-37 33-52 76-52 45 0 72 20 72 64v82c-1 20 7 32 28 27v20c-31 9-61-2-59-35zM48-53c0 20 12 33 32 33 41-3 63-29 60-74-43 2-92-5-92 41" id="O"/><path fill="#fff" d="M210-169c-67 3-38 105-44 169h-31v-121c0-29-5-50-35-48C34-165 62-65 56 0H25l-1-190h30c1 10-1 24 2 32 10-44 99-50 107 0 11-21 27-35 58-36 85-2 47 119 55 194h-31v-121c0-29-5-49-35-48" id="P"/><g id="b"><use transform="matrix(0.049382716049382706,0,0,0.049382716049382706,0,0)" xlink:href="#J"/><use transform="matrix(0.049382716049382706,0,0,0.049382716049382706,12.790123456790122,0)" xlink:href="#K"/><use transform="matrix(0.049382716049382706,0,0,0.049382716049382706,21.67901234567901,0)" xlink:href="#L"/><use transform="matrix(0.049382716049382706,0,0,0.049382716049382706,31.55555555555555,0)" xlink:href="#M"/><use transform="matrix(0.049382716049382706,0,0,0.049382716049382706,37.432098765432094,0)" xlink:href="#N"/><use transform="matrix(0.049382716049382706,0,0,0.049382716049382706,47.30864197530863,0)" xlink:href="#O"/><use transform="matrix(0.049382716049382706,0,0,0.049382716049382706,57.185185185185176,0)" xlink:href="#P"/><use transform="matrix(0.049382716049382706,0,0,0.049382716049382706,71.9506172839506,0)" xlink:href="#L"/></g><path fill="#fff" d="M185-189c-5-48-123-54-124 2 14 75 158 14 163 119 3 78-121 87-175 55-17-10-28-26-33-46l33-7c5 56 141 63 141-1 0-78-155-14-162-118-5-82 145-84 179-34 5 7 8 16 11 25" id="Q"/><path fill="#fff" d="M59-47c-2 24 18 29 38 22v24C64 9 27 4 27-40v-127H5v-23h24l9-43h21v43h35v23H59v120" id="R"/><path fill="#fff" d="M24-231v-30h32v30H24zM24 0v-190h32V0H24" id="S"/><path fill="#fff" d="M177-190C167-65 218 103 67 71c-23-6-38-20-44-43l32-5c15 47 100 32 89-28v-30C133-14 115 1 83 1 29 1 15-40 15-95c0-56 16-97 71-98 29-1 48 16 59 35 1-10 0-23 2-32h30zM94-22c36 0 50-32 50-73 0-42-14-75-50-75-39 0-46 34-46 75s6 73 46 73" id="T"/><g id="c"><use transform="matrix(0.049382716049382706,0,0,0.049382716049382706,0,0)" xlink:href="#Q"/><use transform="matrix(0.049382716049382706,0,0,0.049382716049382706,11.85185185185185,0)" xlink:href="#R"/><use transform="matrix(0.049382716049382706,0,0,0.049382716049382706,16.79012345679012,0)" xlink:href="#M"/><use transform="matrix(0.049382716049382706,0,0,0.049382716049382706,22.66666666666666,0)" xlink:href="#S"/><use transform="matrix(0.049382716049382706,0,0,0.049382716049382706,26.567901234567895,0)" xlink:href="#N"/><use transform="matrix(0.049382716049382706,0,0,0.049382716049382706,36.444444444444436,0)" xlink:href="#T"/></g><path fill="#fff" d="M30-248c87 1 191-15 191 75 0 78-77 80-158 76V0H30v-248zm33 125c57 0 124 11 124-50 0-59-68-47-124-48v98" id="U"/><path fill="#fff" d="M206 0h-36l-40-164L89 0H53L-1-190h32L70-26l43-164h34l41 164 42-164h31" id="V"/><path fill="#fff" d="M100-194c62-1 85 37 85 99 1 63-27 99-86 99S16-35 15-95c0-66 28-99 85-99zM99-20c44 1 53-31 53-75 0-43-8-75-51-75s-53 32-53 75 10 74 51 75" id="W"/><path fill="#fff" d="M85-194c31 0 48 13 60 33l-1-100h32l1 261h-30c-2-10 0-23-3-31C134-8 116 4 85 4 32 4 16-35 15-94c0-66 23-100 70-100zm9 24c-40 0-46 34-46 75 0 40 6 74 45 74 42 0 51-32 51-76 0-42-9-74-50-73" id="X"/><g id="d"><use transform="matrix(0.049382716049382706,0,0,0.049382716049382706,0,0)" xlink:href="#U"/><use transform="matrix(0.049382716049382706,0,0,0.049382716049382706,11.85185185185185,0)" xlink:href="#O"/><use transform="matrix(0.049382716049382706,0,0,0.049382716049382706,21.728395061728392,0)" xlink:href="#K"/><use transform="matrix(0.049382716049382706,0,0,0.049382716049382706,30.617283950617278,0)" xlink:href="#K"/><use transform="matrix(0.049382716049382706,0,0,0.049382716049382706,39.50617283950616,0)" xlink:href="#V"/><use transform="matrix(0.049382716049382706,0,0,0.049382716049382706,52.29629629629628,0)" xlink:href="#W"/><use transform="matrix(0.049382716049382706,0,0,0.049382716049382706,62.172839506172814,0)" xlink:href="#M"/><use transform="matrix(0.049382716049382706,0,0,0.049382716049382706,68.04938271604937,0)" xlink:href="#X"/></g><path fill="#fff" d="M30 0v-248h187v28H63v79h144v27H63v87h162V0H30" id="Y"/><path fill="#fff" d="M24 0v-261h32V0H24" id="Z"/><g id="e"><use transform="matrix(0.049382716049382706,0,0,0.049382716049382706,0,0)" xlink:href="#Y"/><use transform="matrix(0.049382716049382706,0,0,0.049382716049382706,11.85185185185185,0)" xlink:href="#P"/><use transform="matrix(0.049382716049382706,0,0,0.049382716049382706,26.617283950617278,0)" xlink:href="#O"/><use transform="matrix(0.049382716049382706,0,0,0.049382716049382706,36.49382716049382,0)" xlink:href="#S"/><use transform="matrix(0.049382716049382706,0,0,0.049382716049382706,40.395061728395056,0)" xlink:href="#Z"/></g><path fill="#fff" d="M30-248c118-7 216 8 213 122C240-48 200 0 122 0H30v-248zM63-27c89 8 146-16 146-99s-60-101-146-95v194" id="aa"/><path fill="#fff" d="M140-251c81 0 123 46 123 126C263-46 219 4 140 4 59 4 17-45 17-125s42-126 123-126zm0 227c63 0 89-41 89-101s-29-99-89-99c-61 0-89 39-89 99S79-25 140-24" id="ab"/><path fill="#fff" d="M101-234c-31-9-42 10-38 44h38v23H63V0H32v-167H5v-23h27c-7-52 17-82 69-68v24" id="ac"/><path fill="#fff" d="M160-131c35 5 61 23 61 61C221 17 115-2 30 0v-248c76 3 177-17 177 60 0 33-19 50-47 57zm-97-11c50-1 110 9 110-42 0-47-63-36-110-37v79zm0 115c55-2 124 14 124-45 0-56-70-42-124-44v89" id="ad"/><path fill="#fff" d="M106-169C34-169 62-67 57 0H25v-261h32l-1 103c12-21 28-36 61-36 89 0 53 116 60 194h-32v-121c2-32-8-49-39-48" id="ae"/><g id="f"><use transform="matrix(0.049382716049382706,0,0,0.049382716049382706,0,0)" xlink:href="#aa"/><use transform="matrix(0.049382716049382706,0,0,0.049382716049382706,12.790123456790122,0)" xlink:href="#O"/><use transform="matrix(0.049382716049382706,0,0,0.049382716049382706,22.666666666666664,0)" xlink:href="#R"/><use transform="matrix(0.049382716049382706,0,0,0.049382716049382706,27.60493827160494,0)" xlink:href="#L"/><use transform="matrix(0.049382716049382706,0,0,0.049382716049382706,37.48148148148148,0)" xlink:href="#ab"/><use transform="matrix(0.049382716049382706,0,0,0.049382716049382706,51.308641975308646,0)" xlink:href="#ac"/><use transform="matrix(0.049382716049382706,0,0,0.049382716049382706,56.24691358024691,0)" xlink:href="#ad"/><use transform="matrix(0.049382716049382706,0,0,0.049382716049382706,68.09876543209876,0)" xlink:href="#S"/><use transform="matrix(0.049382716049382706,0,0,0.049382716049382706,71.99999999999999,0)" xlink:href="#M"/><use transform="matrix(0.049382716049382706,0,0,0.049382716049382706,77.87654320987653,0)" xlink:href="#R"/><use transform="matrix(0.049382716049382706,0,0,0.049382716049382706,82.8148148148148,0)" xlink:href="#ae"/></g><g id="g"><use transform="matrix(0.049382716049382706,0,0,0.049382716049382706,0,0)" xlink:href="#aa"/><use transform="matrix(0.049382716049382706,0,0,0.049382716049382706,12.790123456790122,0)" xlink:href="#O"/><use transform="matrix(0.049382716049382706,0,0,0.049382716049382706,22.666666666666664,0)" xlink:href="#R"/><use transform="matrix(0.049382716049382706,0,0,0.049382716049382706,27.60493827160494,0)" xlink:href="#L"/></g><path fill="#fff" d="M275 0h-61l-44-196L126 0H64L0-248h53L97-49l45-199h58l43 199 44-199h52" id="af"/><path fill="#fff" d="M133-34C117-15 103 5 69 4 32 3 11-16 11-54c-1-60 55-63 116-61 1-26-3-47-28-47-18 1-26 9-28 27l-52-2c7-38 36-58 82-57s74 22 75 68l1 82c-1 14 12 18 25 15v27c-30 8-71 5-69-32zm-48 3c29 0 43-24 42-57-32 0-66-3-65 30 0 17 8 27 23 27" id="ag"/><path fill="#fff" d="M115-3C79 11 28 4 28-45v-112H4v-33h27l15-45h31v45h36v33H77v99c-1 23 16 31 38 25v30" id="ah"/><path fill="#fff" d="M190-63c-7 42-38 67-86 67-59 0-84-38-90-98-12-110 154-137 174-36l-49 2c-2-19-15-32-35-32-30 0-35 28-38 64-6 74 65 87 74 30" id="ai"/><path fill="#fff" d="M114-157C55-157 80-60 75 0H25v-261h50l-1 109c12-26 28-41 61-42 86-1 58 113 63 194h-50c-7-57 23-157-34-157" id="aj"/><g id="h"><use transform="matrix(0.04938271604938272,0,0,0.04938271604938272,0,0)" xlink:href="#af"/><use transform="matrix(0.04938271604938272,0,0,0.04938271604938272,16.098765432098766,0)" xlink:href="#ag"/><use transform="matrix(0.04938271604938272,0,0,0.04938271604938272,25.97530864197531,0)" xlink:href="#ah"/><use transform="matrix(0.04938271604938272,0,0,0.04938271604938272,31.851851851851855,0)" xlink:href="#ai"/><use transform="matrix(0.04938271604938272,0,0,0.04938271604938272,41.7283950617284,0)" xlink:href="#aj"/><use transform="matrix(0.04938271604938272,0,0,0.04938271604938272,52.543209876543216,0)" xlink:href="#H"/><use transform="matrix(0.04938271604938272,0,0,0.04938271604938272,62.41975308641976,0)" xlink:href="#G"/></g><path fill="#fff" d="M147 0H94L2-248h55l64 206c17-72 42-137 63-206h54" id="ak"/><path fill="#fff" d="M25 0v-261h50V0H25" id="al"/><g id="i"><use transform="matrix(0.049382716049382706,0,0,0.049382716049382706,0,0)" xlink:href="#ak"/><use transform="matrix(0.049382716049382706,0,0,0.049382716049382706,10.864197530864196,0)" xlink:href="#H"/><use transform="matrix(0.049382716049382706,0,0,0.049382716049382706,20.740740740740737,0)" xlink:href="#G"/><use transform="matrix(0.049382716049382706,0,0,0.049382716049382706,30.617283950617278,0)" xlink:href="#G"/><use transform="matrix(0.049382716049382706,0,0,0.049382716049382706,40.49382716049382,0)" xlink:href="#H"/><use transform="matrix(0.049382716049382706,0,0,0.049382716049382706,50.37037037037037,0)" xlink:href="#al"/></g><path fill="#fff" d="M127-220V0H93v-220H8v-28h204v28h-85" id="am"/><path fill="#fff" d="M179-190L93 31C79 59 56 82 12 73V49c39 6 53-20 64-50L1-190h34L92-34l54-156h33" id="an"/><path fill="#fff" d="M115-194c55 1 70 41 70 98S169 2 115 4C84 4 66-9 55-30l1 105H24l-1-265h31l2 30c10-21 28-34 59-34zm-8 174c40 0 45-34 45-75s-6-73-45-74c-42 0-51 32-51 76 0 43 10 73 51 73" id="ao"/><g id="j"><use transform="matrix(0.049382716049382706,0,0,0.049382716049382706,0,0)" xlink:href="#am"/><use transform="matrix(0.049382716049382706,0,0,0.049382716049382706,9.82716049382716,0)" xlink:href="#an"/><use transform="matrix(0.049382716049382706,0,0,0.049382716049382706,18.716049382716047,0)" xlink:href="#ao"/><use transform="matrix(0.049382716049382706,0,0,0.049382716049382706,28.592592592592588,0)" xlink:href="#L"/></g><path fill="#fff" d="M84 4C-5 8 30-112 23-190h32v120c0 31 7 50 39 49 72-2 45-101 50-169h31l1 190h-30c-1-10 1-25-2-33-11 22-28 36-60 37" id="ap"/><g id="k"><use transform="matrix(0.049382716049382706,0,0,0.049382716049382706,0,0)" xlink:href="#Y"/><use transform="matrix(0.049382716049382706,0,0,0.049382716049382706,11.85185185185185,0)" xlink:href="#N"/><use transform="matrix(0.049382716049382706,0,0,0.049382716049382706,21.728395061728392,0)" xlink:href="#ap"/><use transform="matrix(0.049382716049382706,0,0,0.049382716049382706,31.604938271604933,0)" xlink:href="#P"/></g><g id="l"><use transform="matrix(0.049382716049382706,0,0,0.049382716049382706,0,0)" xlink:href="#am"/><use transform="matrix(0.049382716049382706,0,0,0.049382716049382706,10.172839506172838,0)" xlink:href="#S"/><use transform="matrix(0.049382716049382706,0,0,0.049382716049382706,14.07407407407407,0)" xlink:href="#R"/><use transform="matrix(0.049382716049382706,0,0,0.049382716049382706,19.01234567901234,0)" xlink:href="#Z"/><use transform="matrix(0.049382716049382706,0,0,0.049382716049382706,22.913580246913575,0)" xlink:href="#L"/></g><g id="m"><use transform="matrix(0.049382716049382706,0,0,0.049382716049382706,0,0)" xlink:href="#Q"/><use transform="matrix(0.049382716049382706,0,0,0.049382716049382706,11.85185185185185,0)" xlink:href="#an"/><use transform="matrix(0.049382716049382706,0,0,0.049382716049382706,20.740740740740737,0)" xlink:href="#N"/><use transform="matrix(0.049382716049382706,0,0,0.049382716049382706,30.617283950617278,0)" xlink:href="#W"/><use transform="matrix(0.049382716049382706,0,0,0.049382716049382706,40.49382716049382,0)" xlink:href="#ao"/><use transform="matrix(0.049382716049382706,0,0,0.049382716049382706,50.37037037037037,0)" xlink:href="#K"/><use transform="matrix(0.049382716049382706,0,0,0.049382716049382706,59.259259259259245,0)" xlink:href="#S"/><use transform="matrix(0.049382716049382706,0,0,0.049382716049382706,63.16049382716048,0)" xlink:href="#K"/></g><path fill="#fff" d="M63-220v92h138v28H63V0H30v-248h175v28H63" id="aq"/><path fill="#fff" d="M30 0v-248h33v221h125V0H30" id="ar"/><g id="n"><use transform="matrix(0.049382716049382706,0,0,0.049382716049382706,0,0)" xlink:href="#aq"/><use transform="matrix(0.049382716049382706,0,0,0.049382716049382706,10.814814814814813,0)" xlink:href="#S"/><use transform="matrix(0.049382716049382706,0,0,0.049382716049382706,14.716049382716047,0)" xlink:href="#N"/><use transform="matrix(0.049382716049382706,0,0,0.049382716049382706,24.592592592592588,0)" xlink:href="#O"/><use transform="matrix(0.049382716049382706,0,0,0.049382716049382706,34.469135802469125,0)" xlink:href="#Z"/><use transform="matrix(0.049382716049382706,0,0,0.049382716049382706,38.37037037037036,0)" xlink:href="#ar"/><use transform="matrix(0.049382716049382706,0,0,0.049382716049382706,48.2469135802469,0)" xlink:href="#L"/><use transform="matrix(0.049382716049382706,0,0,0.049382716049382706,58.12345679012345,0)" xlink:href="#N"/><use transform="matrix(0.049382716049382706,0,0,0.049382716049382706,67.99999999999999,0)" xlink:href="#T"/><use transform="matrix(0.049382716049382706,0,0,0.049382716049382706,77.87654320987653,0)" xlink:href="#R"/><use transform="matrix(0.049382716049382706,0,0,0.049382716049382706,82.8148148148148,0)" xlink:href="#ae"/></g><path fill="#fff" d="M33 0v-248h34V0H33" id="as"/><g id="o"><use transform="matrix(0.049382716049382706,0,0,0.049382716049382706,0,0)" xlink:href="#as"/><use transform="matrix(0.049382716049382706,0,0,0.049382716049382706,4.93827160493827,0)" xlink:href="#N"/><use transform="matrix(0.049382716049382706,0,0,0.049382716049382706,14.814814814814811,0)" xlink:href="#R"/></g><path fill="#fff" d="M212-179c-10-28-35-45-73-45-59 0-87 40-87 99 0 60 29 101 89 101 43 0 62-24 78-52l27 14C228-24 195 4 139 4 59 4 22-46 18-125c-6-104 99-153 187-111 19 9 31 26 39 46" id="at"/><g id="p"><use transform="matrix(0.049382716049382706,0,0,0.049382716049382706,0,0)" xlink:href="#at"/><use transform="matrix(0.049382716049382706,0,0,0.049382716049382706,12.790123456790122,0)" xlink:href="#ap"/><use transform="matrix(0.049382716049382706,0,0,0.049382716049382706,22.666666666666664,0)" xlink:href="#M"/><use transform="matrix(0.049382716049382706,0,0,0.049382716049382706,28.543209876543205,0)" xlink:href="#M"/><use transform="matrix(0.049382716049382706,0,0,0.049382716049382706,34.419753086419746,0)" xlink:href="#L"/><use transform="matrix(0.049382716049382706,0,0,0.049382716049382706,44.29629629629629,0)" xlink:href="#N"/><use transform="matrix(0.049382716049382706,0,0,0.049382716049382706,54.17283950617284,0)" xlink:href="#R"/><use transform="matrix(0.049382716049382706,0,0,0.049382716049382706,59.111111111111114,0)" xlink:href="#ar"/><use transform="matrix(0.049382716049382706,0,0,0.049382716049382706,68.98765432098764,0)" xlink:href="#L"/><use transform="matrix(0.049382716049382706,0,0,0.049382716049382706,78.86419753086419,0)" xlink:href="#N"/><use transform="matrix(0.049382716049382706,0,0,0.049382716049382706,88.74074074074073,0)" xlink:href="#T"/><use transform="matrix(0.049382716049382706,0,0,0.049382716049382706,98.61728395061728,0)" xlink:href="#R"/><use transform="matrix(0.049382716049382706,0,0,0.049382716049382706,103.55555555555553,0)" xlink:href="#ae"/></g><g id="q"><use transform="matrix(0.049382716049382706,0,0,0.049382716049382706,0,0)" xlink:href="#Q"/><use transform="matrix(0.049382716049382706,0,0,0.049382716049382706,11.85185185185185,0)" xlink:href="#R"/><use transform="matrix(0.049382716049382706,0,0,0.049382716049382706,16.79012345679012,0)" xlink:href="#O"/><use transform="matrix(0.049382716049382706,0,0,0.049382716049382706,26.66666666666666,0)" xlink:href="#R"/><use transform="matrix(0.049382716049382706,0,0,0.049382716049382706,31.604938271604933,0)" xlink:href="#ap"/><use transform="matrix(0.049382716049382706,0,0,0.049382716049382706,41.48148148148147,0)" xlink:href="#K"/></g><path fill="#fff" d="M233-177c-1 41-23 64-60 70L243 0h-38l-65-103H63V0H30v-248c88 3 205-21 203 71zM63-129c60-2 137 13 137-47 0-61-80-42-137-45v92" id="au"/><g id="r"><use transform="matrix(0.049382716049382706,0,0,0.049382716049382706,0,0)" xlink:href="#au"/><use transform="matrix(0.049382716049382706,0,0,0.049382716049382706,12.790123456790122,0)" xlink:href="#L"/><use transform="matrix(0.049382716049382706,0,0,0.049382716049382706,22.666666666666664,0)" xlink:href="#Z"/><use transform="matrix(0.049382716049382706,0,0,0.049382716049382706,26.567901234567895,0)" xlink:href="#L"/><use transform="matrix(0.049382716049382706,0,0,0.049382716049382706,36.44444444444444,0)" xlink:href="#O"/><use transform="matrix(0.049382716049382706,0,0,0.049382716049382706,46.32098765432099,0)" xlink:href="#K"/><use transform="matrix(0.049382716049382706,0,0,0.049382716049382706,55.20987654320988,0)" xlink:href="#L"/><use transform="matrix(0.049382716049382706,0,0,0.049382716049382706,65.08641975308642,0)" xlink:href="#aa"/><use transform="matrix(0.049382716049382706,0,0,0.049382716049382706,77.87654320987654,0)" xlink:href="#O"/><use transform="matrix(0.049382716049382706,0,0,0.049382716049382706,87.75308641975309,0)" xlink:href="#R"/><use transform="matrix(0.049382716049382706,0,0,0.049382716049382706,92.69135802469135,0)" xlink:href="#L"/></g><path fill="#fff" d="M108 0H70L1-190h34L89-25l56-165h34" id="av"/><g id="s"><use transform="matrix(0.049382716049382706,0,0,0.049382716049382706,0,0)" xlink:href="#au"/><use transform="matrix(0.049382716049382706,0,0,0.049382716049382706,12.790123456790122,0)" xlink:href="#L"/><use transform="matrix(0.049382716049382706,0,0,0.049382716049382706,22.666666666666664,0)" xlink:href="#Z"/><use transform="matrix(0.049382716049382706,0,0,0.049382716049382706,26.567901234567895,0)" xlink:href="#L"/><use transform="matrix(0.049382716049382706,0,0,0.049382716049382706,36.44444444444444,0)" xlink:href="#O"/><use transform="matrix(0.049382716049382706,0,0,0.049382716049382706,46.32098765432099,0)" xlink:href="#K"/><use transform="matrix(0.049382716049382706,0,0,0.049382716049382706,55.20987654320988,0)" xlink:href="#L"/><use transform="matrix(0.049382716049382706,0,0,0.049382716049382706,65.08641975308642,0)" xlink:href="#as"/><use transform="matrix(0.049382716049382706,0,0,0.049382716049382706,70.02469135802468,0)" xlink:href="#N"/><use transform="matrix(0.049382716049382706,0,0,0.049382716049382706,79.90123456790123,0)" xlink:href="#R"/><use transform="matrix(0.049382716049382706,0,0,0.049382716049382706,84.83950617283949,0)" xlink:href="#L"/><use transform="matrix(0.049382716049382706,0,0,0.049382716049382706,94.71604938271604,0)" xlink:href="#M"/><use transform="matrix(0.049382716049382706,0,0,0.049382716049382706,100.59259259259258,0)" xlink:href="#av"/><use transform="matrix(0.049382716049382706,0,0,0.049382716049382706,109.48148148148147,0)" xlink:href="#O"/><use transform="matrix(0.049382716049382706,0,0,0.049382716049382706,119.358024691358,0)" xlink:href="#Z"/></g><path fill="#fff" d="M143 0L79-87 56-68V0H24v-261h32v163l83-92h37l-77 82L181 0h-38" id="aw"/><g id="t"><use transform="matrix(0.049382716049382706,0,0,0.049382716049382706,0,0)" xlink:href="#ad"/><use transform="matrix(0.049382716049382706,0,0,0.049382716049382706,11.85185185185185,0)" xlink:href="#ap"/><use transform="matrix(0.049382716049382706,0,0,0.049382716049382706,21.728395061728392,0)" xlink:href="#Z"/><use transform="matrix(0.049382716049382706,0,0,0.049382716049382706,25.629629629629626,0)" xlink:href="#aw"/><use transform="matrix(0.049382716049382706,0,0,0.049382716049382706,34.51851851851851,0)" xlink:href="#au"/><use transform="matrix(0.049382716049382706,0,0,0.049382716049382706,47.30864197530863,0)" xlink:href="#L"/><use transform="matrix(0.049382716049382706,0,0,0.049382716049382706,57.185185185185176,0)" xlink:href="#Z"/><use transform="matrix(0.049382716049382706,0,0,0.049382716049382706,61.08641975308641,0)" xlink:href="#L"/><use transform="matrix(0.049382716049382706,0,0,0.049382716049382706,70.96296296296295,0)" xlink:href="#O"/><use transform="matrix(0.049382716049382706,0,0,0.049382716049382706,80.83950617283949,0)" xlink:href="#K"/><use transform="matrix(0.049382716049382706,0,0,0.049382716049382706,89.72839506172838,0)" xlink:href="#L"/></g><g id="u"><use transform="matrix(0.049382716049382706,0,0,0.049382716049382706,0,0)" xlink:href="#ad"/><use transform="matrix(0.049382716049382706,0,0,0.049382716049382706,11.85185185185185,0)" xlink:href="#W"/><use transform="matrix(0.049382716049382706,0,0,0.049382716049382706,21.728395061728392,0)" xlink:href="#W"/><use transform="matrix(0.049382716049382706,0,0,0.049382716049382706,31.604938271604933,0)" xlink:href="#Z"/></g><path fill="#fff" d="M182-130c37 4 62 22 62 59C244 23 116-4 24 0v-248c84 5 203-23 205 63 0 31-19 50-47 55zM76-148c40-3 101 13 101-30 0-44-60-28-101-31v61zm0 110c48-3 116 14 116-37 0-48-69-32-116-35v72" id="ax"/><path fill="#fff" d="M110-194c64 0 96 36 96 99 0 64-35 99-97 99-61 0-95-36-95-99 0-62 34-99 96-99zm-1 164c35 0 45-28 45-65 0-40-10-65-43-65-34 0-45 26-45 65 0 36 10 65 43 65" id="ay"/><path fill="#fff" d="M135-194c87-1 58 113 63 194h-50c-7-57 23-157-34-157-59 0-34 97-39 157H25l-1-190h47c2 12-1 28 3 38 12-26 28-41 61-42" id="az"/><path fill="#fff" d="M195-6C206 82 75 100 31 46c-4-6-6-13-8-21l49-6c3 16 16 24 34 25 40 0 42-37 40-79-11 22-30 35-61 35-53 0-70-43-70-97 0-56 18-96 73-97 30 0 46 14 59 34l2-30h47zm-90-29c32 0 41-27 41-63 0-35-9-62-40-62-32 0-39 29-40 63 0 36 9 62 39 62" id="aA"/><g id="v"><use transform="matrix(0.04938271604938272,0,0,0.04938271604938272,0,0)" xlink:href="#ax"/><use transform="matrix(0.04938271604938272,0,0,0.04938271604938272,12.790123456790125,0)" xlink:href="#H"/><use transform="matrix(0.04938271604938272,0,0,0.04938271604938272,22.66666666666667,0)" xlink:href="#al"/><use transform="matrix(0.04938271604938272,0,0,0.04938271604938272,27.604938271604947,0)" xlink:href="#ay"/><use transform="matrix(0.04938271604938272,0,0,0.04938271604938272,38.41975308641976,0)" xlink:href="#az"/><use transform="matrix(0.04938271604938272,0,0,0.04938271604938272,49.23456790123458,0)" xlink:href="#aA"/><use transform="matrix(0.04938271604938272,0,0,0.04938271604938272,60.0493827160494,0)" xlink:href="#G"/></g><g id="w"><use transform="matrix(0.04938271604938272,0,0,0.04938271604938272,0,0)" xlink:href="#ah"/><use transform="matrix(0.04938271604938272,0,0,0.04938271604938272,5.8765432098765435,0)" xlink:href="#ay"/></g><g id="x"><use transform="matrix(0.049382716049382706,0,0,0.049382716049382706,0,0)" xlink:href="#af"/><use transform="matrix(0.049382716049382706,0,0,0.049382716049382706,16.098765432098762,0)" xlink:href="#ag"/><use transform="matrix(0.049382716049382706,0,0,0.049382716049382706,25.975308641975303,0)" xlink:href="#ah"/><use transform="matrix(0.049382716049382706,0,0,0.049382716049382706,31.851851851851844,0)" xlink:href="#ai"/><use transform="matrix(0.049382716049382706,0,0,0.049382716049382706,41.728395061728385,0)" xlink:href="#aj"/></g><g id="y"><use transform="matrix(0.049382716049382706,0,0,0.049382716049382706,0,0)" xlink:href="#U"/><use transform="matrix(0.049382716049382706,0,0,0.049382716049382706,11.85185185185185,0)" xlink:href="#M"/><use transform="matrix(0.049382716049382706,0,0,0.049382716049382706,17.728395061728392,0)" xlink:href="#W"/><use transform="matrix(0.049382716049382706,0,0,0.049382716049382706,27.604938271604933,0)" xlink:href="#T"/><use transform="matrix(0.049382716049382706,0,0,0.049382716049382706,37.481481481481474,0)" xlink:href="#M"/><use transform="matrix(0.049382716049382706,0,0,0.049382716049382706,43.35802469135802,0)" xlink:href="#L"/><use transform="matrix(0.049382716049382706,0,0,0.049382716049382706,53.234567901234556,0)" xlink:href="#K"/><use transform="matrix(0.049382716049382706,0,0,0.049382716049382706,62.12345679012344,0)" xlink:href="#K"/></g><path fill="#fff" d="M67-125c0 54 23 88 75 88 28 0 53-7 68-21v-34h-60v-39h108v91C232-14 192 4 140 4 58 4 20-42 15-125 8-236 126-280 215-234c19 10 29 26 37 47l-47 15c-11-23-29-39-63-39-53 1-75 33-75 86" id="aB"/><path fill="#fff" d="M88-194c31-1 46 15 58 34l-1-101h50l1 261h-48c-2-10 0-23-3-31C134-8 116 4 84 4 32 4 16-41 15-95c0-56 19-97 73-99zm17 164c33 0 40-30 41-66 1-37-9-64-41-64s-38 30-39 65c0 43 13 65 39 65" id="aC"/><g id="z"><use transform="matrix(0.04938271604938272,0,0,0.04938271604938272,0,0)" xlink:href="#aB"/><use transform="matrix(0.04938271604938272,0,0,0.04938271604938272,13.827160493827162,0)" xlink:href="#I"/><use transform="matrix(0.04938271604938272,0,0,0.04938271604938272,20.74074074074074,0)" xlink:href="#ag"/><use transform="matrix(0.04938271604938272,0,0,0.04938271604938272,30.617283950617285,0)" xlink:href="#aC"/><use transform="matrix(0.04938271604938272,0,0,0.04938271604938272,41.4320987654321,0)" xlink:href="#H"/><use transform="matrix(0.04938271604938272,0,0,0.04938271604938272,51.308641975308646,0)" xlink:href="#G"/></g><path fill="#fff" d="M240-174c0 40-23 61-54 70L253 0h-59l-57-94H76V0H24v-248c93 4 217-23 216 74zM76-134c48-2 112 12 112-38 0-48-66-32-112-35v73" id="aD"/><path fill="#fff" d="M128 0H69L1-190h53L99-40l48-150h52" id="aE"/><path fill="#fff" d="M25-224v-37h50v37H25zM25 0v-190h50V0H25" id="aF"/><path fill="#fff" d="M231 0h-52l-39-155L100 0H48L-1-190h46L77-45c9-52 24-97 36-145h53l37 145 32-145h46" id="aG"/><g id="A"><use transform="matrix(0.049382716049382706,0,0,0.049382716049382706,0,0)" xlink:href="#aD"/><use transform="matrix(0.049382716049382706,0,0,0.049382716049382706,12.790123456790122,0)" xlink:href="#H"/><use transform="matrix(0.049382716049382706,0,0,0.049382716049382706,22.666666666666664,0)" xlink:href="#aE"/><use transform="matrix(0.049382716049382706,0,0,0.049382716049382706,32.5432098765432,0)" xlink:href="#aF"/><use transform="matrix(0.049382716049382706,0,0,0.049382716049382706,37.481481481481474,0)" xlink:href="#H"/><use transform="matrix(0.049382716049382706,0,0,0.049382716049382706,47.35802469135801,0)" xlink:href="#aG"/></g><g id="B"><use transform="matrix(0.049382716049382706,0,0,0.049382716049382706,0,0)" xlink:href="#au"/><use transform="matrix(0.049382716049382706,0,0,0.049382716049382706,12.790123456790122,0)" xlink:href="#O"/><use transform="matrix(0.049382716049382706,0,0,0.049382716049382706,22.666666666666664,0)" xlink:href="#R"/><use transform="matrix(0.049382716049382706,0,0,0.049382716049382706,27.60493827160494,0)" xlink:href="#S"/><use transform="matrix(0.049382716049382706,0,0,0.049382716049382706,31.50617283950617,0)" xlink:href="#N"/><use transform="matrix(0.049382716049382706,0,0,0.049382716049382706,41.38271604938271,0)" xlink:href="#T"/></g><g id="C"><use transform="matrix(0.049382716049382706,0,0,0.049382716049382706,0,0)" xlink:href="#at"/><use transform="matrix(0.049382716049382706,0,0,0.049382716049382706,12.790123456790122,0)" xlink:href="#W"/><use transform="matrix(0.049382716049382706,0,0,0.049382716049382706,22.666666666666664,0)" xlink:href="#N"/><use transform="matrix(0.049382716049382706,0,0,0.049382716049382706,32.5432098765432,0)" xlink:href="#R"/><use transform="matrix(0.049382716049382706,0,0,0.049382716049382706,37.481481481481474,0)" xlink:href="#L"/><use transform="matrix(0.049382716049382706,0,0,0.049382716049382706,47.35802469135801,0)" xlink:href="#N"/><use transform="matrix(0.049382716049382706,0,0,0.049382716049382706,57.234567901234556,0)" xlink:href="#R"/></g><path fill="#fff" d="M76-208v77h127v40H76V0H24v-248h183v40H76" id="aH"/><g id="D"><use transform="matrix(0.04938271604938272,0,0,0.04938271604938272,0,0)" xlink:href="#aH"/><use transform="matrix(0.04938271604938272,0,0,0.04938271604938272,10.814814814814815,0)" xlink:href="#ay"/><use transform="matrix(0.04938271604938272,0,0,0.04938271604938272,21.62962962962963,0)" xlink:href="#al"/><use transform="matrix(0.04938271604938272,0,0,0.04938271604938272,26.567901234567902,0)" xlink:href="#al"/><use transform="matrix(0.04938271604938272,0,0,0.04938271604938272,31.506172839506174,0)" xlink:href="#ay"/><use transform="matrix(0.04938271604938272,0,0,0.04938271604938272,42.32098765432099,0)" xlink:href="#aG"/><use transform="matrix(0.04938271604938272,0,0,0.04938271604938272,56.14814814814815,0)" xlink:href="#G"/></g><path fill="#fff" d="M140-251c80 0 125 45 125 126S219 4 139 4C58 4 15-44 15-125s44-126 125-126zm-1 214c52 0 73-35 73-88 0-50-21-86-72-86-52 0-73 35-73 86s22 88 72 88" id="aI"/><g id="E"><use transform="matrix(0.04938271604938272,0,0,0.04938271604938272,0,0)" xlink:href="#aI"/><use transform="matrix(0.04938271604938272,0,0,0.04938271604938272,13.827160493827162,0)" xlink:href="#aG"/><use transform="matrix(0.04938271604938272,0,0,0.04938271604938272,27.654320987654323,0)" xlink:href="#az"/><use transform="matrix(0.04938271604938272,0,0,0.04938271604938272,38.46913580246914,0)" xlink:href="#G"/></g></defs></g></svg>